<svg xmlns="http://www.w3.org/2000/svg" width="608" height="608"><path d="M304 4c-165.685 0-300 134.315-300 300s134.315 300 300 300 300-134.315 300-300-134.315-300-300-300zm0 25c125.967 0 232.154 84.699 264.719 200.25-28.048 57.852-67.959 109.94-116.563 152.031-23.349 20.22-48.841 38.246-77 50.938s-59.132 19.893-89.969 18.125c-23.168-1.329-46.055-7.782-66.344-19.031 53.77-29.136 102.286-67.983 142-114.5 26.068-30.533 48.875-65.232 57.656-104.406 4.391-19.587 5.135-40.101 1.031-59.75s-13.189-38.374-26.938-53c-13.432-14.288-31.065-24.41-49.969-29.625s-39.022-5.619-58.313-2.094c-38.582 7.051-73.028 29.474-100.656 57.313-48.698 49.069-78.804 118.307-73.281 187.219 2.761 34.456 14.308 68.313 34.094 96.656 4.417 6.327 9.272 12.353 14.469 18.063-28.824 10.088-58.669 17.268-88.938 21.313-25.988-41.993-41-91.487-41-144.5 0-151.878 123.122-275 275-275zm1.75 55.563c19.331.026 38.794 5.879 54.219 17.531 13.897 10.499 24.194 25.434 30.031 41.844 5.837 16.409 7.335 34.229 5.344 51.531-3.983 34.605-21.44 66.34-42.531 94.063-37.344 49.086-86.982 88.373-142.188 115.875-5.651 2.815-11.391 5.491-17.156 8.063-12.012-10.512-22.308-22.98-30.156-36.875-16.399-29.035-21.807-63.525-18.625-96.719 3.182-33.194 14.573-65.185 29.875-94.813 17.742-34.352 41.926-66.89 75.781-85.563 16.927-9.336 36.075-14.964 55.406-14.938zm270.781 182.625c1.611 12.042 2.469 24.329 2.469 36.813 0 151.878-123.122 275-275 275-85.296 0-161.528-38.83-211.969-99.781 31.134-7.071 61.563-17.228 90.75-30.156 12.764 9.72 26.86 17.693 41.844 23.438 43.151 16.543 92.142 14.149 135.813-.969 43.671-15.118 82.397-42.253 116.156-73.813 40.216-37.595 74.124-81.907 99.938-130.531z"/></svg>