<?xml version="1.0" standalone="no"?>
<!DOCTYPE svg PUBLIC "-//W3C//DTD SVG 1.1//EN" "http://www.w3.org/Graphics/SVG/1.1/DTD/svg11.dtd" >
<svg xmlns="http://www.w3.org/2000/svg">
<metadata></metadata>
<defs>
<font id="econregular" horiz-adv-x="2048" >
<font-face units-per-em="2048" ascent="1920" descent="-128" />
<missing-glyph horiz-adv-x="500" />
<glyph horiz-adv-x="0" />
<glyph unicode="&#xd;" horiz-adv-x="680" />
<glyph unicode="!" d="M0 0v-128h128h1024h128v128q0 52 -38 90t-90 38h-256v104v24v56q172 76 278 234t106 350v192v64v64q0 28 -18 46t-46 18t-46 -18t-18 -46v-64v-64v-192q0 -212 -150 -362t-362 -150t-362 150t-150 362v256v64q0 28 -18 46t-46 18t-46 -18t-18 -46v-128v-192 q0 -192 106 -350t278 -234v-56v-24v-104h-256q-52 0 -90 -38t-38 -90zM256 896q0 -160 112 -272t272 -112t272 112t112 272v512q0 160 -112 272t-272 112t-272 -112t-112 -272v-512zM1408 52v-180h184l136 136l136 -136h184v180l-140 136l140 136v188h-180l-140 -140 l-144 140h-176v-188l136 -136z" />
<glyph unicode="&#x22;" d="M0 0v-128h128h1024h128v128q0 52 -38 90t-90 38h-256v104v24v56q172 76 278 234t106 350v192v64v64q0 28 -18 46t-46 18t-46 -18t-18 -46v-64v-64v-192q0 -212 -150 -362t-362 -150t-362 150t-150 362v256v64q0 28 -18 46t-46 18t-46 -18t-18 -46v-128v-192 q0 -192 106 -350t278 -234v-56v-24v-104h-256q-52 0 -90 -38t-38 -90zM256 896q0 -160 112 -272t272 -112t272 112t112 272v512q0 160 -112 272t-272 112t-272 -112t-112 -272v-512zM1408 256q0 -108 74 -182t182 -74t182 74t74 182t-74 182t-182 74t-182 -74t-74 -182z" />
<glyph unicode="%" d="M0 0v-128h128h1024h128v128q0 52 -38 90t-90 38h-256v104v24v56q172 76 278 234t106 350v192v64v64q0 28 -18 46t-46 18t-46 -18t-18 -46v-64v-64v-192q0 -212 -150 -362t-362 -150t-362 150t-150 362v256v64q0 28 -18 46t-46 18t-46 -18t-18 -46v-128v-192 q0 -192 106 -350t278 -234v-56v-24v-104h-256q-52 0 -90 -38t-38 -90zM256 896q0 -160 112 -272t272 -112t272 112t112 272v512q0 160 -112 272t-272 112t-272 -112t-112 -272v-512zM1408 256q0 -108 74 -182t182 -74t182 74t74 182t-74 182t-182 74t-182 -74t-74 -182z M1408 896q0 -108 74 -182t182 -74t182 74t74 182t-74 182t-182 74t-182 -74t-74 -182zM1408 1536q0 -108 74 -182t182 -74t182 74t74 182t-74 182t-182 74t-182 -74t-74 -182z" />
<glyph unicode="&#x26;" d="M0 640h320l388 -388l60 4v1408h-68l-380 -384h-320v-640zM896 640h120q0 4 4 4q132 132 132 316t-132 316q-4 0 -4 4h-120v-320v-320z" />
<glyph unicode="(" d="M0 640h320l388 -388l60 4v1408h-68l-380 -384h-320v-640zM896 640h120q0 4 4 4q132 132 132 316t-132 316q-4 0 -4 4h-120v-320v-320zM1152 384h152q232 240 232 576t-232 576h-152v-220q124 -156 124 -356t-124 -356v-220zM1408 128h188q324 348 324 832t-324 832h-188 v-172q260 -276 260 -660t-260 -660v-172z" />
<glyph unicode=")" d="M0 1280l1024 -1152l1024 1152q-12 16 -38 42t-120 92t-202 116t-288 92t-376 42q-580 0 -956 -320zM192 1248q32 32 94 80t278 128t460 80q156 0 298 -30t236 -72t164 -84t102 -70l32 -32l-832 -928z" />
<glyph unicode="*" d="M0 640h320l388 -388l60 4v1408h-68l-380 -384h-320v-640zM896 640h120q0 4 4 4q132 132 132 316t-132 316q-4 0 -4 4h-120v-320v-320zM1152 384h152q232 240 232 576t-232 576h-152v-220q124 -156 124 -356t-124 -356v-220z" />
<glyph unicode="+" d="M20 1256l144 -160q112 156 344 254t516 98t516 -98t344 -254l144 160q-132 184 -404 296t-600 112t-600 -112t-404 -296zM292 952l132 -148q232 220 598 220t602 -220l132 148q-128 132 -320 210t-412 78t-412 -78t-320 -210zM540 672l136 -152q160 96 348 96t348 -96 l136 152q-212 160 -484 160t-484 -160zM824 360l200 -232q192 224 200 232q-52 52 -200 52q-136 0 -200 -52z" />
<glyph unicode="-" d="M824 360l200 -232q192 224 200 232q-52 52 -200 52q-136 0 -200 -52z" />
<glyph unicode="0" d="M384 0v-128h128h1024h128v128q0 52 -38 90t-90 38h-256v104v24v56q172 76 278 234t106 350v192v64v64q0 28 -18 46t-46 18t-46 -18t-18 -46v-64v-64v-192q0 -212 -150 -362t-362 -150t-362 150t-150 362v256v64q0 28 -18 46t-46 18t-46 -18t-18 -46v-128v-192 q0 -192 106 -350t278 -234v-56v-24v-104h-256q-52 0 -90 -38t-38 -90zM640 896q0 -160 112 -272t272 -112t272 112t112 272v512q0 160 -112 272t-272 112t-272 -112t-112 -272v-512z" />
<glyph unicode="1" d="M0 896q0 -264 188 -452t452 -188v256q-160 0 -272 112t-112 272t112 272t272 112h128v-256l512 384l-512 384v-256h-128q-264 0 -452 -188t-188 -452zM768 384l4 -4v2v6zM896 448q0 -240 168 -408t408 -168t408 168t168 408t-168 408t-408 168t-408 -168t-168 -408z M1280 128v128h128v256h-128v128q56 0 88 32t36 64l4 32h128v-512h128v-128h-384zM1408 1280q212 0 324 -180q192 -76 312 -244q0 4 2 18t2 22q0 264 -188 452t-452 188v-256z" />
<glyph unicode="2" d="M128 1272l896 -640v384q176 4 302 -78t170 -202t-6 -264t-202 -248q-52 -40 -120 -72l-292 -140q-92 -52 344 108l48 16q120 52 216 120q176 128 258 300t56 338t-116 310t-266 230t-392 86v392z" />
<glyph unicode="3" d="M260 894q24 166 116 310t266 230t390 86v392l896 -640l-896 -640v384q-172 4 -300 -78t-170 -202t6 -264t200 -248q56 -40 120 -72l292 -140q92 -52 -344 108q-20 8 -44 16q-124 52 -220 120q-172 128 -254 300t-58 338z" />
<glyph unicode="4" d="M180 128h460v128h-172l140 384h700l136 -384h-164v-128h588v128h-164l-596 1536h-188l-592 -1536h-148v-128zM652 768l304 756l308 -756h-612z" />
<glyph unicode="5" d="M376 128h360v92h-140l108 280h536l108 -280h-140v-92h464v92h-128l-456 1188h-144l-456 -1188h-112v-92zM740 592l232 608l236 -608h-468z" />
<glyph unicode="6" d="M128 240q0 -100 70 -170t170 -70h1312q100 0 170 70t70 170v1312q0 100 -70 170t-170 70h-1312q-100 0 -170 -70t-70 -170v-1312zM768 896v256h256v64q0 84 24 130t80 98q112 96 288 88q20 0 62 -6t58 -6v-240q-180 52 -220 0q-36 -44 -36 -128h256v-256h-256v-640h-256 v640h-256z" />
<glyph unicode="7" d="M0 252q296 -188 644 -188q280 0 512 108t378 282t226 384t80 422v52q124 92 208 220q-116 -52 -240 -68q136 84 184 232q-124 -72 -268 -100q-124 132 -308 132q-172 0 -296 -122t-124 -298q0 -48 12 -96q-256 12 -482 128t-382 312q-60 -96 -60 -212q0 -224 188 -348 q-100 0 -188 52v-8q0 -148 94 -264t242 -148q-56 -12 -112 -12q-40 0 -80 8q44 -128 150 -210t246 -82q-232 -180 -524 -180q-48 0 -100 4z" />
<glyph unicode="8" d="M0 384q0 -108 74 -182t182 -74h1536q108 0 182 74t74 182v768q0 108 -74 182t-182 74h-384q0 108 -74 182t-182 74h-256q-108 0 -182 -74t-74 -182h-384q-108 0 -182 -74t-74 -182v-768zM640 768q0 160 112 272t272 112t272 -112t112 -272t-112 -272t-272 -112t-272 112 t-112 272zM896 768q0 -52 38 -90t90 -38t90 38t38 90t-38 90t-90 38t-90 -38t-38 -90z" />
<glyph unicode="9" d="M0 512q0 -108 74 -182t182 -74h1024q108 0 182 74t74 182v384v384q0 108 -74 182t-182 74h-1024q-108 0 -182 -74t-74 -182v-768zM1536 896l512 -512v1024z" />
<glyph unicode=":" d="M128 128h384v384h-384v-384zM128 640h384v384h-384v-384zM128 1152h384v384h-384v-384zM640 256h1152v128h-1152v-128zM640 768h1152v128h-1152v-128zM640 1280h1152v128h-1152v-128z" />
<glyph unicode=";" d="M256 128h512v512h-512v-512zM256 1152h512v512h-512v-512zM384 256v256h256v-256h-256zM384 1280v256h256v-256h-256zM1280 128h512v512h-512v-512zM1280 1152h512v512h-512v-512zM1408 256v256h256v-256h-256zM1408 1280v256h256v-256h-256z" />
<glyph unicode="=" d="M292 952l132 -148q232 220 598 220t602 -220l132 148q-128 132 -320 210t-412 78t-412 -78t-320 -210zM540 672l136 -152q160 96 348 96t348 -96l136 152q-212 160 -484 160t-484 -160zM824 360l200 -232q192 224 200 232q-52 52 -200 52q-136 0 -200 -52z" />
<glyph unicode="A" d="M0 896q0 -424 300 -724t724 -300t724 300t300 724t-300 724t-724 300t-724 -300t-300 -724zM136 896q0 368 260 628t628 260q300 0 534 -178t318 -458q-140 -284 -376 -488q-136 -116 -248 -168q-128 -57 -256 -57l-32 1q-80 4 -164 40q248 144 432 360q160 188 200 360 q12 50 12 102t-12 106q-24 116 -96 192t-176 104q-58 16 -119 16q-44 0 -89 -8q-184 -32 -348 -200q-128 -128 -196 -296q-58 -143 -58 -291q0 -26 2 -53q16 -184 120 -336l24 -32q-124 -40 -236 -56q-124 208 -124 452zM368 300q132 36 248 84q60 -44 136 -72 q105 -41 220 -41q120 0 248 45q208 72 396 248q172 160 296 368v-18v-18q0 -368 -260 -628t-628 -260q-388 0 -656 292zM517 915q0 28 3 57q16 148 96 308q104 196 244 276q80 44 168 44q100 0 168 -52q60 -44 88 -128q22 -62 22 -124q0 -18 -2 -36q-16 -144 -136 -300 q-176 -232 -464 -376l-16 -8l-24 -12q-52 52 -84 104q-63 112 -63 247z" />
<glyph unicode="B" d="M136 896q0 -244 124 -452q112 16 236 56l-24 32q-104 152 -120 336q-2 26 -2 53q0 149 58 291q68 168 196 296q164 168 348 200q45 8 89 8q61 0 119 -16q104 -28 176 -104t96 -192q12 -54 12 -106t-12 -102q-40 -172 -200 -360q-184 -216 -432 -360q84 -36 164 -40 q16 -1 32 -1l256 57q112 52 248 168q236 204 376 488q-84 280 -318 458t-534 178q-368 0 -628 -260t-260 -628zM368 300q268 -292 656 -292q368 0 628 260t260 628v9v27q-124 -208 -296 -368q-188 -176 -396 -248q-129 -45 -248 -45q-114 0 -220 41q-76 28 -136 72 q-116 -48 -248 -84zM517 915q0 -134 63 -247q32 -52 84 -104l24 12l16 8q288 144 464 376q120 156 136 300q2 18 2 36q0 62 -22 124q-28 84 -88 128q-68 52 -168 52q-88 0 -168 -44q-140 -80 -244 -276q-80 -160 -96 -308q-3 -29 -3 -57z" />
<glyph unicode="C" d="M256 636h768v-468l896 792l-896 788v-472h-768v-640z" />
<glyph unicode="D" d="M256 896h512v768h512v-768h512l-768 -896z" />
<glyph unicode="E" d="M256 636v640h768v472l768 -676v592h256v-1408h-256v592l-768 -680v468h-768z" />
<glyph unicode="F" d="M256 128v-256h1536v256h-660l660 768h-512v768h-512v-768h-512l660 -768h-660z" />
<glyph unicode="G" d="M128 960l896 788v-472h768v-640h-768v-468z" />
<glyph unicode="H" d="M0 256h256v592l768 -680v468h768v640h-768v472l-768 -676v592h-256v-1408z" />
<glyph unicode="I" d="M256 896h512v-768h512v768h512l-768 896z" />
<glyph unicode="J" d="M256 768l660 768h-660v256h1536v-256h-660l660 -768h-512v-768h-512v768h-512z" />
<glyph unicode="K" d="M0 768h384v-768h1280v768h384l-384 388v508h-384v-140l-256 264z" />
<glyph unicode="L" d="M256 0h1152v256h-896v1280h896v256h-1152v-1792zM640 896l640 -512v384h512v256h-512v384z" />
<glyph unicode="M" d="M256 0h1152v256h-896v1280h896v256h-1152v-1792zM640 768h512v-384l640 512l-640 512v-384h-512v-256z" />
<glyph unicode="N" d="M148 836q20 -20 20 -52q0 -24 -16 -44l644 -592q24 0 44 -20h1012q0 28 20 48t48 20v1272q-28 0 -48 20t-20 48h-992h-6h-2h-8q-12 -16 -32 -20zM832 600l224 232l-224 228l184 188l232 -224l228 224l188 -188l-224 -228l224 -236l-188 -180l-228 224l-232 -224z" />
<glyph unicode="O" d="M132 196v1272q28 0 48 20t20 48h992h2h6h8q12 -16 32 -20l664 -680q-24 -20 -24 -52q0 -24 20 -44l-644 -592q-28 0 -44 -20h-1012q0 28 -20 48t-48 20zM388 596l188 -180l228 224l232 -224l184 184l-224 232l224 228l-184 188l-232 -224l-228 224l-188 -188l224 -228z " />
<glyph unicode="P" d="M384 768h1280v256h-1280v-256z" />
<glyph unicode="Q" d="M128 896q0 -372 262 -634t634 -262t634 262t262 634t-262 634t-634 262t-634 -262t-262 -634zM456 780l172 228l304 -264l516 656l200 -180l-672 -888z" />
<glyph unicode="R" d="M132 898q0 -370 262 -632t630 -262t630 262t262 632t-262 630t-630 260t-630 -260t-262 -630zM512 768v256h1024v-256h-1024z" />
<glyph unicode="S" d="M128 736h280q20 -80 68 -160l-200 -200l228 -228l200 200q80 -48 160 -68v-280h320v280q80 20 160 68l200 -200l228 228l-200 200q48 80 68 160h280v320h-280q-20 80 -68 160l200 200l-228 228l-200 -200q-80 48 -160 68v280h-320v-280q-80 -20 -160 -68l-200 200 l-228 -228l200 -200q-48 -80 -68 -160h-280v-320zM768 896q0 108 74 182t182 74t182 -74t74 -182t-74 -182t-182 -74t-182 74t-74 182z" />
<glyph unicode="T" d="M128 -64q0 -28 18 -46t46 -18h1280q28 0 46 18t18 46v192h320q28 0 46 18t18 46v1664q0 28 -18 46t-46 18h-1280q-28 0 -46 -18t-18 -46v-192h-320q-28 0 -46 -18t-18 -46v-1664zM256 0v1536h1152v-1536h-1152zM640 1664v128h1152v-1536h-256v1344q0 28 -18 46t-46 18 h-832z" />
<glyph unicode="U" d="M0 896q0 -424 300 -724t724 -300t724 300t300 724t-300 724t-724 300t-724 -300t-300 -724zM256 896q0 320 224 544t544 224t544 -224t224 -544t-224 -544t-544 -224t-544 224t-224 544zM512 896l512 -512l512 512h-384v512h-256v-512h-384z" />
<glyph unicode="V" d="M0 44q0 -44 48 -44h1952q48 0 48 44v1704q0 44 -48 44h-1952q-48 0 -48 -44v-1704zM96 136v140q0 32 28 44h12h8h96q44 0 44 -44v-140q0 -44 -44 -44h-96q-48 0 -48 44zM96 1516v140q0 44 48 44h96q44 0 44 -44v-140q0 -44 -44 -44h-96q-48 0 -48 44zM128 384v1024h1792 v-1024h-1792zM256 512h1536v768h-1536v-768zM428 136v140q0 32 28 44h20h96q48 0 48 -44v-140q0 -44 -48 -44h-96q-48 0 -48 44zM428 1516v140q0 44 48 44h96q48 0 48 -44v-140q0 -44 -48 -44h-96q-48 0 -48 44zM764 136v140q0 32 28 44h16h96q48 0 48 -44v-140 q0 -44 -48 -44h-96q-20 0 -32 12t-12 32zM764 1516v140q0 44 44 44h96q48 0 48 -44v-140q0 -44 -48 -44h-96q-20 0 -32 12t-12 32zM1096 136v140q0 32 28 44h20h96q44 0 44 -44v-140q0 -44 -44 -44h-96q-48 0 -48 44zM1096 1516v140q0 44 48 44h96q44 0 44 -44v-140 q0 -44 -44 -44h-96q-48 0 -48 44zM1428 136v140q0 32 28 44h20h96q48 0 48 -44v-140q0 -44 -48 -44h-96q-48 0 -48 44zM1428 1516v140q0 44 48 44h96q48 0 48 -44v-140q0 -44 -48 -44h-96q-48 0 -48 44zM1764 136v140q0 32 28 44h16h96q48 0 48 -44v-140q0 -44 -48 -44h-96 q-44 0 -44 44zM1764 1516v140q0 44 44 44h96q48 0 48 -44v-140q0 -44 -48 -44h-96q-44 0 -44 44z" />
<glyph unicode="W" d="M0 324q0 -12 8 -28l56 -312l8 -40q4 -44 16 -58t40 -14h1732h36t36 4t30 16t18 32l68 348v40v4v4l-128 1424v7q0 46 -48 105q-52 64 -144 64h-1444q-72 0 -114 -64t-42 -104l-128 -1372v-48v-8zM204 448q0 24 20 42t44 18t40 -18t16 -42t-20 -44t-44 -20t-40 20t-16 44z M256 256h1600h36l-44 -256h-312h-332h-920l-20 184zM277 1009q0 27 3 55q56 120 148 198t194 122t204 82t202 104t160 166q0 52 76 52h264q76 0 80 -52q28 -380 32 -412q156 -185 156 -335q0 -38 -10 -75q-50 -178 -260 -288t-482 -114h-26q-178 0 -338 52q-172 56 -284 156 q-119 108 -119 289zM399 1448q0 5 1 12q8 40 24 118t20 106q0 4 8 32t4 40l28 24h332h8q30 0 44 -28.5t14 -62.5q0 -14 -2 -29q-16 -56 -64 -84q-36 -16 -100 -40t-92 -36q-24 -8 -86 -36t-98 -40q-4 4 -16 2t-20 6q-5 5 -5 16zM403 1012q0 -169 159 -266q156 -95 430 -95 q31 0 64 1q244 8 424 102t206 240q3 16 3 32q0 134 -193 298l56 396q0 12 -28 12h-264q-12 0 -20 -4t-8 -8q-28 -124 -108 -200t-182 -110t-208 -68t-198 -106t-132 -192q-1 -16 -1 -32zM498 1598.5q0 -5.5 2 -12.5q4 -14 16 -10l232 92q16 0 20 12t-12 20h-228q-4 0 -6 -6 t-6 -6l-16 -80q-2 -4 -2 -9.5zM768 959v13q4 60 44 100q64 72 180 80q18 2 35 2t33 -2q140 -12 200 -112q21 -34 21 -77q0 -7 -1 -15q-4 -52 -36 -88q-72 -92 -220 -92q-156 0 -228 100q-28 39 -28 91zM821 935q0 -24 15 -43q40 -64 152 -80q24 -3 46 -3q100 0 162 59 q24 24 28 60q1 6 1 12q0 29 -17 52q-24 28 -120 36l-24 2t-36 2q-128 -4 -176 -32q-24 -16 -30 -50q-1 -8 -1 -15zM1728 448q0 24 20 42t44 18t40 -18t16 -42t-20 -44t-44 -20t-40 20t-16 44z" />
<glyph unicode="X" d="M128 1152q0 -264 188 -452t452 -188q184 0 340 100l572 -592q20 -20 48 -20q32 0 52 24l120 136q22 26 22 49t-22 43l-588 564q96 156 96 336q0 264 -188 452t-452 188t-452 -188t-188 -452zM384 1152q0 160 112 272t272 112t272 -112t112 -272t-112 -272t-272 -112 t-272 112t-112 272z" />
<glyph unicode="Y" d="M256 896q0 -320 224 -544t544 -224t544 224t224 544h-256q0 -212 -150 -362t-362 -150t-362 150t-150 362t150 362t362 150v-256l640 384l-640 384v-256q-320 0 -544 -224t-224 -544z" />
<glyph unicode="Z" d="M384 496l412 400l-412 400l240 240l396 -408l404 408l240 -240l-416 -396l416 -404l-240 -240l-404 416l-396 -416z" />
<glyph unicode="[" d="M128 256h1664v1280h-1664v-1280zM256 384v1024h384v-1024h-384zM768 384v1024h384v-1024h-384zM1280 384v1024h384v-1024h-384z" />
<glyph unicode="]" d="M0 256h128v1280h-128v-1280zM256 384h128v1024h-128v-1024zM512 384h1024v1024h-1024v-1024zM640 512v768h768v-768h-768zM1664 384h128v1024h-128v-1024zM1920 256h128v1280h-128v-1280z" />
<glyph unicode="^" d="M0 640h320l388 -388l60 4v1408h-68l-380 -384h-320v-640zM896 640h120q0 4 4 4q132 132 132 316t-132 316q-4 0 -4 4h-120v-320v-320zM1152 384h128v256h188q96 220 52 468t-216 428h-152v-220q124 -156 124 -356t-124 -356v-220zM1408 52v-180h184l136 136l136 -136h184 v180l-140 136l140 136v188h-180l-140 -140l-144 140h-176v-188l136 -136zM1408 1620q188 -200 242 -468t-34 -512h264q84 292 10 604t-294 548h-188v-172z" />
<glyph unicode="_" d="M540 672l136 -152q160 96 348 96t348 -96l136 152q-212 160 -484 160t-484 -160zM824 360l200 -232q192 224 200 232q-52 52 -200 52q-136 0 -200 -52z" />
<glyph unicode="a" d="M0 512q0 -108 74 -182t182 -74h128v-384h1280v384h128q108 0 182 74t74 182v768q0 108 -74 182t-182 74h-128v256q0 52 -38 90t-90 38h-1024q-52 0 -90 -38t-38 -90v-256h-128q-108 0 -182 -74t-74 -182v-768zM256 576v640q0 28 18 46t46 18h1408q28 0 46 -18t18 -46 v-640q0 -28 -18 -46t-46 -18h-64v512h-1280v-512h-64q-28 0 -46 18t-18 46zM512 0v896h1024v-896h-1024zM512 1536v192q0 28 18 46t46 18h896q28 0 46 -18t18 -46v-192h-1024zM640 128h768v128h-768v-128zM640 384h768v128h-768v-128zM640 640h768v128h-768v-128z" />
<glyph unicode="b" d="M256 0h1408v896l-128 -84v-684h-1152v1536h628q76 28 140 44v84h-896v-1792zM597 1028q0 -149 95 -290q112 -166 332 -226q-196 124 -228 266q-6 27 -6 53q0 107 108 179q118 79 325 79q28 0 57 -1v-320l768 512l-768 640v-320q-304 -36 -482 -188t-198 -330 q-3 -27 -3 -54z" />
<glyph unicode="c" d="M384 256h92h12q40 40 92 40q12 0 24 -4l164 164v-456v-12v-12v-104h104q36 40 92 40q12 0 24 -4l512 512q-40 36 -40 92t40 92l-292 292l292 292q-40 36 -40 92t40 92l-512 512h-4q-52 0 -88 36h-16h-112v-108v-6v-6v-8v-456l-164 164q-12 -4 -28 -4q-52 0 -92 40h-100 v-92v-6v-6q40 -40 40 -92q0 -12 -4 -24l348 -348v-144l-348 -348q4 -12 4 -28q0 -52 -40 -92v-100zM1024 312v400l200 -200zM1024 1080v400l200 -200z" />
<glyph unicode="d" d="M768 896q0 -108 74 -182t182 -74t182 74t74 182t-74 182t-182 74t-182 -74t-74 -182z" />
<glyph unicode="e" d="M128 1077q0 -48 40 -77q44 -60 138 -156t130 -144q52 -32 56 -98q1 -11 1 -22q0 -53 -17 -96q-52 -320 -52 -388q4 -60 60 -84q24 -10 46 -10q29 0 54 18q76 28 200 96t184 92q24 20 54 20t50 -12t52 -30t52 -26q160 -88 292 -148q20 -9 40 -9l64 23q42 31 42 74 q0 10 -2 20q0 96 -28 268t-32 236q12 32 36 60t58 60t50 48q152 152 212 244q11 22 11 44q0 26 -15 52q-28 48 -80 52q-44 16 -312 60q-8 0 -52 6t-64 12t-46 24t-34 50q-32 64 -94 190t-94 186q-60 80 -108 80q-28 -4 -52 -24t-34 -36t-32 -52t-26 -48q-20 -40 -76 -164 t-96 -188q-24 -16 -60 -24t-82 -14t-70 -10q-32 -8 -94 -16t-110 -16t-92 -24q-56 -16 -66 -78q-2 -11 -2 -21z" />
<glyph unicode="f" d="M384 768h512v-512h256v512h512v256h-512v512h-256v-512h-512v-256z" />
<glyph unicode="g" d="M129 894q0 -37 3 -74q0 -4 2 -14t2 -14v-6v-6q8 -56 12 -76v-4q12 -48 24 -88q4 -16 36 -84q4 -8 32 -60q0 -4 4 -10t4 -10l2 -4l2 -4q8 -16 12 -20q20 -28 48 -68q0 -4 4 -8l8 -8l10 -10t12 -14t10 -12l44 -44q76 -76 156 -124l6 -2l6 -2l4 -4l4 -4l56 -28q4 0 12 -4 t12 -8q40 -16 56 -24q24 -8 80 -24q32 -8 72 -16q48 -8 96 -12q56 -4 64 -4t64 4q36 4 48 4t48 8q40 8 72 16q56 16 80 24q60 24 144 72l6 2l6 2q80 48 156 124l44 44q4 4 8 10t8 10l44 52q4 4 8 14t8 14l14 20t18 28q24 40 36 68q0 4 2 8l2 4q48 104 64 188q4 12 6 38t2 30 q4 24 4 36q3 37 3 74q0 216 -101 414q-118 232 -346 364q-28 18 -59 18q-18 0 -37 -6q-52 -16 -80 -62q-19 -31 -19 -62q0 -16 5 -32q14 -48 62 -76q212 -120 288 -352q34 -103 34 -203q0 -126 -54 -249l-4 -4q-28 -68 -44 -92q-24 -36 -60 -80q-40 -48 -84 -80 q-8 -4 -20 -12t-16 -12q-28 -20 -68 -40q-4 -4 -14 -8t-14 -4q-56 -28 -76 -32t-76 -16q-4 0 -16 -4t-16 -4h-8h-8q-40 -4 -64 -4t-64 4h-8h-8t-16 4t-16 4q-56 12 -76 16q-20 8 -76 32q-4 0 -14 4t-14 8q-40 20 -68 40q-4 0 -16 10t-20 14q-48 36 -84 80t-60 80 q-16 24 -44 92l-4 4q-54 123 -54 249q0 100 34 203q76 232 288 352q48 28 62 76q5 16 5 32q0 32 -19 64q-38 66 -106 66q-11 0 -22 -2q-24 -4 -48 -16q-228 -132 -346 -364q-101 -198 -101 -414zM896 1024q0 -52 38 -90t90 -38t90 38t38 90v768q0 52 -38 90t-90 38t-90 -38 t-38 -90v-768z" />
<glyph unicode="h" horiz-adv-x="2044" d="M256 128l224 224q220 -224 540 -224q284 0 496 182t256 454h-260q-44 -168 -180 -276t-312 -108q-208 0 -360 152l232 232h-364h-260h-12v-636zM268 1020h260q44 168 180 274t312 106q208 0 360 -148l-232 -232h364h260h12v636l-224 -224q-220 224 -540 224 q-284 0 -496 -182t-256 -454z" />
<glyph unicode="i" d="M125 266q0 -61 27 -118q52 -112 176 -140q35 -8 69 -8q88 0 175 52q92 56 146 146q50 84 50 173v13v964q20 0 320 56t320 60v-696h-12q-86 0 -176 -52q-124 -72 -174 -200q-25 -63 -25 -122q0 -61 27 -118q52 -112 176 -140q35 -8 69 -8q88 0 175 52q92 56 146 146 q50 84 50 173v13v1324q-4 36 -26 62q-19 23 -46 23q-4 0 -8 -1q-128 -20 -486 -72t-522 -80q-24 -12 -38 -30t-20 -52t-6 -42v-56v-948h-12q-86 0 -176 -52q-124 -72 -174 -200q-25 -63 -25 -122z" />
<glyph unicode="j" d="M0 896q0 -424 300 -724t724 -300t724 300t300 724t-300 724t-724 300t-724 -300t-300 -724zM128 896q0 8 4 64q4 -4 10 -18t14 -22l4 -12l68 -40l72 -20l28 -40l48 -36l24 8l20 -12v-4l-24 -76l-20 -28l4 -16l-16 -60l60 -108l60 -56l28 -36l-4 -84l20 -44l-20 -88v-4 q-176 124 -278 316t-102 416zM216 988l4 48l52 36h40l8 24l48 -12l36 -44l8 76l64 52l20 60l48 20l28 36l60 12l28 48h-88l56 24h40l52 20l8 -52l24 36l-28 20l8 20l-20 20l-24 4l8 24l-20 36l-40 -16l8 32l-48 28l-36 -68l4 -20l-36 -16l-24 -52l-8 48l-64 24l-12 36l84 48 l36 36l4 44l-20 12h-8q56 40 88 56v-12l-28 -24l-20 -48h40l12 32l4 8q8 4 24 16t24 20l40 -12q12 -8 36 -26t36 -26l40 36l-44 16l-16 40l-72 8v4v4h4l24 -8l20 20l36 8q8 4 28 12l-24 -24l84 -60v-36l-32 -36l44 -88l32 16l36 60q84 28 156 60l-4 -24l24 -16l44 32l-20 24 l-32 -16l-4 4l44 120l-44 16q240 -20 436 -156l-36 8l-44 16l-64 -16l-40 -28v-24l-68 -44l16 -64l36 28l24 -28l28 -16l16 48l-8 28l8 20l40 36h16l-16 -40v-36q12 4 48 8l-44 -32l-4 -20l-52 -44l-52 12v32l-24 -16l12 -28h-40l-20 -36l-24 -28l-48 -8l28 -28l8 -28h-36 l-44 -24v-72h20l20 -20l44 20l16 44l32 20l4 16l52 12l28 -32l32 -16l-20 -36l28 8l16 36l-36 40h16l32 -28l8 -40l28 -36l8 52l16 8q8 -8 44 -60l56 -4l28 -20l-12 -20l-32 -28h-44l-60 20l-28 -4l-24 -24l-64 64l-44 12l-64 -8l-60 -16q-52 -60 -96 -116l-36 -92l16 -16 l-32 -48l36 -84q16 -16 44 -50t44 -50l44 36l16 -20l48 28l16 -16h44l28 -32l-16 -56l32 -36l-4 -64l28 -48l-20 -40q-4 -68 -4 -88q8 -16 22 -56t22 -60l8 -64v-32h24l40 24h44l64 76l-8 28l48 40l-36 36l40 32l40 24l16 20l-12 44v112l32 68l36 40l44 104v28q-4 0 -26 -4 t-34 -4l40 44l56 40l32 36v36q-4 8 -10 22t-10 22l-28 -36l-20 28l-32 24v48l36 -40l40 4l22 -18t30 -30l12 16q12 -80 12 -132q0 -372 -262 -634t-634 -262q-216 0 -404 96l16 12l-8 16l28 28l8 28l44 12l32 88l-8 20l20 36l52 12l24 60l-4 80l40 56l4 56q-24 12 -50 26 t-58 32t-52 26l-28 56l-48 12l-28 72l-64 -8l-60 44l-60 -56v-8l-24 4q-24 4 -32 12l-12 40v40l-40 -4q0 12 6 42t6 42h-24l-24 -32l-24 -12l-32 20zM456 1588q8 4 14 9l18 15l-8 -20q-12 0 -24 -4zM608 1636l36 -28h32v32l-36 16zM1120 1496l4 -48l36 20l-16 36zM1180 1532 l16 -20v-36l-8 -52l40 8l32 28l-28 28q-16 40 -28 68h-24v-24zM1516 1600h44l8 8l12 -12t12 -8l-32 -36zM1600 1068l12 8l36 -44l48 -100l28 -32l-16 -36l28 -32h-36q-24 56 -56 144l-28 32z" />
<glyph unicode="k" d="M132 896q0 -368 262 -630t630 -262t630 262t262 630t-262 630t-630 262t-630 -262t-262 -630zM752 928q16 12 70 58t80 66t72 50t86 50q36 28 68 28q44 0 64 -50q10 -25 10 -50.5t-10 -51.5q-16 -84 -64 -284t-64 -308q4 -20 18 -26t34 2t36 20t38 28t30 20q11 14 21 14 q16 0 31 -34q4 -8 4 -12q-192 -148 -268 -184q-36 -28 -69 -28q-29 0 -55 22q-37 31 -37 76q0 23 9 50q16 104 56 290t52 262q4 28 -8 38t-32 0t-38 -20t-44 -28t-30 -22q-13 -17 -25 -17q-18 0 -35 41zM1039 1473q0 48 29 89q36 50 92 50q5 1 10 1q31 0 58 -23 q32 -26 40 -62q5 -18 5 -36q0 -50 -43 -92q-41 -39 -86 -39q-20 0 -40 7q-56 24 -64 84q-1 11 -1 21z" />
<glyph unicode="l" d="M254 224q2 -32 2 -36v-12v-28t8 -18t28 2h864v252q52 0 88 36t36 88h132v24q-44 40 -64 68q-24 36 -28 74q-1 8 -1 15q0 31 13 65q16 42 30 70t42 72q16 24 50 62t56 72t22 74q10 51 10 79v9q-2 28 -16 84t-18 84q-5 37 -5 71q0 25 3 49t3 50q0 34 -5 72q-8 66 -32 114 q-88 128 -344 188q-60 12 -112 12q-16 4 -32 4q-20 0 -46 -4t-44 -10t-36 -14t-26 -12l-8 -4l-96 -48q-100 -88 -100 -116q-24 -44 -32 -98q-6 -43 -6 -100v-30q2 -76 2 -104q1 -5 1 -10q0 -37 -23 -112q-15 -49 -15 -86q0 -29 9 -52q-1 -8 -1 -16q0 -31 13 -58 q16 -34 58 -80t50 -58q32 -48 46 -72t32 -68q16 -40 16 -74v-8q-2 -38 -22 -74q-16 -24 -36 -48t-48 -48t-46 -40t-54 -38t-50 -32t-58 -34t-54 -30t-60 -30t-54 -28q-24 -4 -34 -16q-8 -10 -8 -34v-10zM1280 128h256v-256h256v256h256v256h-256v256h-256v-256h-256v-256z " />
<glyph unicode="m" d="M0 -128h2048q0 132 -86 202t-334 194q-140 68 -218 176t-78 184q0 40 24 96t52 88q12 16 54 48t58 60q28 52 42 144q9 59 9 99q0 23 -3 41q-4 24 -26 48t-22 48q0 8 4 74t4 122q0 172 -132 288q-140 124 -372 124q-60 0 -108 -8q-88 -16 -144 -72q4 36 28 64l-36 28 q-28 -36 -36 -72q-36 12 -80 12v-48q28 0 52 -8q-40 -12 -68 -32q-112 -92 -112 -276q0 -56 4 -122t4 -78q0 -20 -22 -44t-26 -48q-3 -17 -3 -41q0 -41 9 -99q14 -92 42 -148q16 -24 58 -56t58 -48q28 -32 50 -88t22 -96q0 -76 -78 -184t-218 -176q-112 -56 -154 -78 t-112 -64t-92 -72t-42 -78t-20 -104z" />
<glyph unicode="n" d="M384 128q0 -52 38 -90t90 -38h1024q52 0 90 38t38 90v768q0 52 -38 90t-90 38v384q0 160 -112 272t-272 112h-256q-160 0 -272 -112t-112 -272v-384q-52 0 -90 -38t-38 -90v-768zM768 1024v384q0 52 38 90t90 38h256q52 0 90 -38t38 -90v-384h-512z" />
<glyph unicode="o" d="M384 128q0 -52 38 -90t90 -38h1024q52 0 90 38t38 90v768q0 52 -38 90t-90 38v384q0 160 -112 272t-272 112h-256q-160 0 -272 -112t-112 -272h256q0 52 38 90t90 38h256q52 0 90 -38t38 -90v-384h-768q-52 0 -90 -38t-38 -90v-768z" />
<glyph unicode="p" d="M256 64q0 -80 56 -136t136 -56h1152q80 0 136 56t56 136v64v32h-288v64h288v192h-288v64h288v32v160h-288v64h288v288h-1536v-288h288v-64h-288v-160v-32h288v-64h-288v-192h288v-64h-288v-32v-64zM384 1152h256v256q0 76 76 166t180 90h256q104 0 180 -84t76 -172v-256 h256v256q0 192 -158 352t-354 160h-256q-192 0 -352 -160t-160 -352v-256zM768 576q0 80 74 136t182 56t182 -56t74 -136q0 -108 -128 -164v-156q0 -96 -128 -96t-128 96v156q-128 56 -128 164z" />
<glyph unicode="q" d="M256 64q0 -80 56 -136t136 -56h1152q80 0 136 56t56 136v64v32h-288v64h288v192h-288v64h288v32v160h-288v64h288v288h-1536v-288h288v-64h-288v-160v-32h288v-64h-288v-192h288v-64h-288v-32v-64zM384 1408h256q0 76 76 166t180 90h256q104 0 180 -84t76 -172v-256h256 v256q0 192 -158 352t-354 160h-256q-192 0 -352 -160t-160 -352zM768 576q0 80 74 136t182 56t182 -56t74 -136q0 -108 -128 -164v-156q0 -96 -128 -96t-128 96v156q-128 56 -128 164z" />
<glyph unicode="r" d="M0 1216q0 -28 18 -46t46 -18h192v-1024q0 -52 38 -90t90 -38t90 38t38 90v1024h192q28 0 46 18t18 46v128q0 28 -18 46t-46 18h-192v256q0 52 -38 90t-90 38t-90 -38t-38 -90v-256h-192q-28 0 -46 -18t-18 -46v-128zM640 448q0 -28 18 -46t46 -18h192v-256q0 -52 38 -90 t90 -38t90 38t38 90v256h192q28 0 46 18t18 46v128q0 28 -18 46t-46 18h-192v1024q0 52 -38 90t-90 38t-90 -38t-38 -90v-1024h-192q-28 0 -46 -18t-18 -46v-128zM1280 960q0 -28 18 -46t46 -18h192v-768q0 -52 38 -90t90 -38t90 38t38 90v768h192q28 0 46 18t18 46v128 q0 28 -18 46t-46 18h-192v512q0 52 -38 90t-90 38t-90 -38t-38 -90v-512h-192q-28 0 -46 -18t-18 -46v-128z" />
<glyph unicode="s" d="M256 64l1536 832l-1536 832v-1664z" />
<glyph unicode="t" d="M384 128h512v1536h-512v-1536zM1152 128h512v1536h-512v-1536z" />
<glyph unicode="u" d="M256 256v1280l896 -640zM1152 256v640v640l896 -640z" />
<glyph unicode="v" d="M0 896l896 -640v640v640zM896 896l896 -640v1280z" />
<glyph unicode="w" d="M256 128h1536v384h-1536v-384zM256 768h1536l-776 896z" />
<glyph unicode="x" d="M128 384h1280v-256l512 384l-512 384v-256h-1280v-256zM128 1152h1280v-256l512 384l-512 384v-256h-1280v-256z" />
<glyph unicode="y" d="M128 384h256q128 0 284 120t276 264t250 264t214 120v-256l512 384l-512 384v-256q-128 0 -284 -120t-276 -264t-250 -264t-214 -120h-256v-256zM128 1152h256q92 0 256 -164l26 26l22 22q84 88 120 128q-248 244 -424 244h-256v-256zM984 628q248 -244 424 -244v-256 l512 384l-512 384v-256q-96 0 -260 164q-8 -8 -70 -74t-94 -102z" />
<glyph unicode="z" d="M0 896q0 -264 188 -452t452 -188v256q-160 0 -272 112t-112 272t112 272t272 112h128v-256l512 384l-512 384v-256h-128q-264 0 -452 -188t-188 -452zM768 384l512 -384v256h128q264 0 452 188t188 452t-188 452t-452 188v-256q160 0 272 -112t112 -272t-112 -272 t-272 -112h-128v256z" />
<glyph unicode="{" d="M256 256h1536v128h-1536v-128zM256 640h1536v128h-1536v-128zM256 1024h1536v128h-1536v-128zM256 1408h1536v128h-1536v-128z" />
<glyph unicode="}" d="M128 256h512v128h-512v-128zM128 640h512v128h-512v-128zM128 1024h512v128h-512v-128zM128 1408h512v128h-512v-128zM896 128h128v1536h-128v-1536zM1280 256h384h128v128v256v128h-128h-384v-128v-256v-128zM1280 1024h384h128v128v256v128h-128h-384v-128v-256v-128z M1408 384v256h256v-256h-256zM1408 1152v256h256v-256h-256z" />
<glyph unicode="&#xa3;" d="M0 0v-128h128h1024h128v128q0 52 -38 90t-90 38h-256v104v24v56q172 76 278 234t106 350v192v64v64q0 28 -18 46t-46 18t-46 -18t-18 -46v-64v-64v-192q0 -212 -150 -362t-362 -150t-362 150t-150 362v256v64q0 28 -18 46t-46 18t-46 -18t-18 -46v-128v-192 q0 -192 106 -350t278 -234v-56v-24v-104h-256q-52 0 -90 -38t-38 -90zM256 896q0 -160 112 -272t272 -112t272 112t112 272v512q0 160 -112 272t-272 112t-272 -112t-112 -272v-512zM1408 256q0 -108 74 -182t182 -74t182 74t74 182t-74 182t-182 74t-182 -74t-74 -182z M1408 896q0 -108 74 -182t182 -74t182 74t74 182t-74 182t-182 74t-182 -74t-74 -182z" />
<glyph unicode="&#xad;" d="M824 360l200 -232q192 224 200 232q-52 52 -200 52q-136 0 -200 -52z" />
<glyph unicode="&#x2013;" horiz-adv-x="2672" d="M824 360l512 -232q492 224 512 232q-133 52 -512 52q-348 0 -512 -52z" />
<glyph unicode="&#x2014;" horiz-adv-x="3696" d="M824 360l1024 -232q983 224 1024 232q-266 52 -1024 52q-696 0 -1024 -52z" />
<glyph unicode="&#xe000;" horiz-adv-x="1665" d="M0 0v1665h1665v-1665h-1665z" />
</font>
</defs>
</svg>
