<svg xmlns="http://www.w3.org/2000/svg" xmlns:xlink="http://www.w3.org/1999/xlink" width="46" height="28"><defs><linearGradient xlink:href="#a" gradientUnits="userSpaceOnUse" gradientTransform="matrix(.565 0 0 .109 -383.983 55.16)" x1="-536.362" y1="264" x2="-512.362" y2="264"/><linearGradient id="a"><stop offset="0" stop-color="#fff"/><stop offset="1" stop-color="#ebebeb"/></linearGradient><linearGradient xlink:href="#b" gradientUnits="userSpaceOnUse" gradientTransform="matrix(.565 0 0 .565 -780.688 -22.543)" x1="165.5" y1="188.5" x2="189.5" y2="188.5"/><linearGradient id="b"><stop offset="0" stop-color="#b4b4b4"/><stop offset="1" stop-color="#a0a0a0"/></linearGradient><linearGradient xlink:href="#c" id="z" gradientUnits="userSpaceOnUse" gradientTransform="matrix(.524 0 0 .094 284.296 349.148)" x1="477.362" y1="252" x2="481.362" y2="252"/><linearGradient id="c"><stop offset="0"/><stop offset="1" stop-opacity="0"/></linearGradient><linearGradient xlink:href="#d" id="A" gradientUnits="userSpaceOnUse" gradientTransform="matrix(.478 0 0 .478 455.213 282.594)" x1="165.452" y1="191.056" x2="189.548" y2="191.056"/><linearGradient id="d"><stop offset="0"/><stop offset="1" stop-opacity=".545"/></linearGradient><linearGradient y2="264" x2="-512.362" y1="264" x1="-536.362" gradientTransform="matrix(.565 0 0 .109 -243.726 343.906)" gradientUnits="userSpaceOnUse" id="x" xlink:href="#a"/><linearGradient y2="188.5" x2="189.5" y1="188.5" x1="165.5" gradientTransform="matrix(.565 0 0 .565 -640.43 266.203)" gradientUnits="userSpaceOnUse" id="y" xlink:href="#b"/><linearGradient xlink:href="#e" id="D" gradientUnits="userSpaceOnUse" gradientTransform="matrix(.524 0 0 .094 284.296 363.148)" x1="477.362" y1="252" x2="481.362" y2="252"/><linearGradient id="e"><stop offset="0"/><stop offset="1" stop-opacity="0"/></linearGradient><linearGradient xlink:href="#f" id="E" gradientUnits="userSpaceOnUse" gradientTransform="matrix(.478 0 0 .478 455.213 296.594)" x1="165.452" y1="191.056" x2="189.548" y2="191.056"/><linearGradient id="f"><stop offset="0"/><stop offset="1" stop-opacity=".545"/></linearGradient><linearGradient xlink:href="#g" gradientUnits="userSpaceOnUse" gradientTransform="matrix(.565 0 0 .109 -383.983 187.16)" x1="-536.362" y1="264" x2="-512.362" y2="264"/><linearGradient id="g"><stop offset="0" stop-color="#fff"/><stop offset="1" stop-color="#ebebeb"/></linearGradient><linearGradient xlink:href="#h" gradientUnits="userSpaceOnUse" gradientTransform="matrix(.565 0 0 .565 -780.688 109.457)" x1="165.5" y1="188.5" x2="189.5" y2="188.5"/><linearGradient id="h"><stop offset="0" stop-color="#b4b4b4"/><stop offset="1" stop-color="#a0a0a0"/></linearGradient><linearGradient y2="264" x2="-512.362" y1="264" x1="-536.362" gradientTransform="matrix(.565 0 0 .109 -243.725 357.906)" gradientUnits="userSpaceOnUse" id="B" xlink:href="#g"/><linearGradient y2="188.5" x2="189.5" y1="188.5" x1="165.5" gradientTransform="matrix(.565 0 0 .565 -640.43 280.203)" gradientUnits="userSpaceOnUse" id="C" xlink:href="#h"/><linearGradient xlink:href="#i" id="H" gradientUnits="userSpaceOnUse" gradientTransform="matrix(.524 0 0 .094 298.297 349.148)" x1="477.362" y1="252" x2="481.362" y2="252"/><linearGradient id="i"><stop offset="0"/><stop offset="1" stop-opacity="0"/></linearGradient><linearGradient xlink:href="#j" id="I" gradientUnits="userSpaceOnUse" gradientTransform="matrix(.478 0 0 .478 469.214 282.594)" x1="165.452" y1="191.056" x2="189.548" y2="191.056"/><linearGradient id="j"><stop offset="0"/><stop offset="1" stop-opacity=".545"/></linearGradient><linearGradient xlink:href="#k" gradientUnits="userSpaceOnUse" gradientTransform="matrix(.565 0 0 .109 -383.985 319.16)" x1="-536.362" y1="264" x2="-512.362" y2="264"/><linearGradient id="k"><stop offset="0" stop-color="#fff"/><stop offset="1" stop-color="#ebebeb"/></linearGradient><linearGradient xlink:href="#l" gradientUnits="userSpaceOnUse" gradientTransform="matrix(.565 0 0 .565 -780.687 241.457)" x1="165.5" y1="188.5" x2="189.5" y2="188.5"/><linearGradient id="l"><stop offset="0" stop-color="#b4b4b4"/><stop offset="1" stop-color="#a0a0a0"/></linearGradient><linearGradient y2="264" x2="-512.362" y1="264" x1="-536.362" gradientTransform="matrix(.565 0 0 .109 -257.727 343.906)" gradientUnits="userSpaceOnUse" id="F" xlink:href="#k"/><linearGradient y2="188.5" x2="189.5" y1="188.5" x1="165.5" gradientTransform="matrix(.565 0 0 .565 -654.43 266.203)" gradientUnits="userSpaceOnUse" id="G" xlink:href="#l"/><linearGradient xlink:href="#m" id="N" x1="213.431" y1="455.95" x2="215.85" y2="455.95" gradientUnits="userSpaceOnUse"/><linearGradient id="m"><stop offset="0"/><stop offset="1" stop-opacity="0"/></linearGradient><linearGradient xlink:href="#n" id="O" gradientUnits="userSpaceOnUse" gradientTransform="matrix(.217 0 0 .042 -437.504 381.2)" x1="-524.362" y1="120" x2="-548.362" y2="120"/><linearGradient id="n"><stop offset="0" stop-color="#55c1ec"/><stop offset="1" stop-color="#3689e6"/></linearGradient><linearGradient xlink:href="#o" id="P" gradientUnits="userSpaceOnUse" gradientTransform="matrix(.217 0 0 .217 -592.692 345.768)" x1="165.5" y1="188.5" x2="189.5" y2="188.5"/><linearGradient id="o"><stop offset="0" stop-color="#1e80a8"/><stop offset="1" stop-color="#2e91d4"/></linearGradient><linearGradient xlink:href="#p" gradientUnits="userSpaceOnUse" gradientTransform="matrix(.565 0 0 .109 -383.985 451.16)" x1="-536.362" y1="264" x2="-512.362" y2="264"/><linearGradient id="p"><stop offset="0" stop-color="#fff"/><stop offset="1" stop-color="#ebebeb"/></linearGradient><linearGradient xlink:href="#q" gradientUnits="userSpaceOnUse" gradientTransform="matrix(.565 0 0 .565 -780.687 373.457)" x1="165.5" y1="188.5" x2="189.5" y2="188.5"/><linearGradient id="q"><stop offset="0" stop-color="#b4b4b4"/><stop offset="1" stop-color="#a0a0a0"/></linearGradient><linearGradient xlink:href="#r" id="Q" gradientUnits="userSpaceOnUse" gradientTransform="matrix(.13 0 0 .13 530.952 362.159)" x1="165.5" y1="188.5" x2="189.548" y2="188.5"/><linearGradient id="r"><stop offset="0" stop-color="#fff"/><stop offset=".18" stop-color="#fff" stop-opacity=".235"/><stop offset=".818" stop-color="#fff" stop-opacity=".157"/><stop offset="1" stop-color="#fff" stop-opacity=".392"/></linearGradient><linearGradient xlink:href="#m" id="L" gradientUnits="userSpaceOnUse" gradientTransform="matrix(.524 0 0 .094 298.297 363.148)" x1="477.362" y1="252" x2="481.362" y2="252"/><linearGradient><stop offset="0"/><stop offset="1" stop-opacity="0"/></linearGradient><linearGradient xlink:href="#s" id="M" gradientUnits="userSpaceOnUse" gradientTransform="matrix(.478 0 0 .478 469.214 296.594)" x1="165.452" y1="191.056" x2="189.548" y2="191.056"/><linearGradient id="s"><stop offset="0"/><stop offset="1" stop-opacity=".545"/></linearGradient><linearGradient y2="264" x2="-512.362" y1="264" x1="-536.362" gradientTransform="matrix(.565 0 0 .109 -257.727 357.906)" gradientUnits="userSpaceOnUse" id="J" xlink:href="#p"/><linearGradient y2="188.5" x2="189.5" y1="188.5" x1="165.5" gradientTransform="matrix(.565 0 0 .565 -654.43 280.203)" gradientUnits="userSpaceOnUse" id="K" xlink:href="#q"/><linearGradient xlink:href="#t" id="U" gradientUnits="userSpaceOnUse" gradientTransform="matrix(.351 0 0 .351 377.543 533.195)" x1="71.204" y1="6.238" x2="71.204" y2="44.341"/><linearGradient id="t"><stop offset="0" stop-color="#fff"/><stop offset=".508" stop-color="#fff" stop-opacity=".235"/><stop offset=".835" stop-color="#fff" stop-opacity=".157"/><stop offset="1" stop-color="#fff" stop-opacity=".392"/></linearGradient><linearGradient xlink:href="#u" id="S" gradientUnits="userSpaceOnUse" gradientTransform="matrix(.294 0 0 .294 393.335 532.104)" x1="38.977" y1="59.968" x2="38.977" y2="8.093"/><linearGradient id="u"><stop offset="0" stop-color="#dcdcdc"/><stop offset="1" stop-color="#f0f0f0"/></linearGradient><linearGradient xlink:href="#v" id="T" gradientUnits="userSpaceOnUse" gradientTransform="matrix(.294 0 0 .294 393.335 532.104)" x1="21.346" y1="59.969" x2="21.346" y2="7.803"/><linearGradient id="v"><stop offset="0" stop-color="#464646"/><stop offset="1" stop-color="#6f6f6f"/></linearGradient><linearGradient xlink:href="#w" gradientUnits="userSpaceOnUse" x1="846.362" y1="198" x2="850.362" y2="198" gradientTransform="matrix(5.667 0 0 .068 -5691.748 184.482)"/><linearGradient id="w"><stop offset="0"/><stop offset="1" stop-opacity="0"/></linearGradient><linearGradient y2="198" x2="850.362" y1="198" x1="846.362" gradientTransform="matrix(5.667 0 0 .068 -5349.49 389.228)" gradientUnits="userSpaceOnUse" id="R" xlink:href="#w"/></defs><g transform="translate(-365.746 -533.104)"><rect ry="2" rx="2" transform="rotate(-90)" y="366.246" x="-546.604" height="13" width="13" fill="url(#x)" stroke="url(#y)" stroke-linecap="square" stroke-linejoin="round"/><rect ry="1" rx="1" width="11" height="11" x="534.604" y="367.246" transform="matrix(0 1 1 0 0 0)" opacity=".1" fill="url(#z)" stroke="url(#A)" stroke-linecap="square"/><rect width="13" height="13" x="-546.604" y="380.246" transform="rotate(-90)" rx="2" ry="2" fill="url(#B)" stroke="url(#C)" stroke-linecap="square" stroke-linejoin="round"/><rect transform="matrix(0 1 1 0 0 0)" y="381.246" x="534.604" height="11" width="11" rx="1" ry="1" opacity=".1" fill="url(#D)" stroke="url(#E)" stroke-linecap="square"/><path d="M382.746 540.104l-2 2 5 4s1-3 7-10l-1-1c-4.441 5-6 8-6 8l-3-3z" opacity=".4" fill-rule="evenodd"/><rect width="13" height="13" x="-560.604" y="366.246" transform="rotate(-90)" rx="7" ry="7" fill="url(#F)" stroke="url(#G)" stroke-linecap="square" stroke-linejoin="round"/><rect transform="matrix(0 1 1 0 0 0)" y="367.246" x="548.604" height="11" width="11" rx="6" ry="6" opacity=".1" fill="url(#H)" stroke="url(#I)" stroke-linecap="square"/><rect ry="7" rx="7" transform="rotate(-90)" y="380.246" x="-560.604" height="13" width="13" fill="url(#J)" stroke="url(#K)" stroke-linecap="square" stroke-linejoin="round"/><rect ry="6" rx="6" width="11" height="11" x="548.604" y="381.246" transform="matrix(0 1 1 0 0 0)" opacity=".1" fill="url(#L)" stroke="url(#M)" stroke-linecap="square"/><path d="M218 455.95a2.15 1.65 0 1 1-4.3 0 2.15 1.65 0 1 1 4.3 0z" transform="matrix(0 -1.628 2.121 0 -580.42 905.488)" opacity=".1" stroke="url(#N)" stroke-width=".538" fill="none"/><rect ry="4" rx="4" transform="rotate(-90)" y="384.246" x="-556.605" height="5" width="5" fill="url(#O)" stroke="url(#P)" stroke-linecap="square" stroke-linejoin="round"/><rect width="3" height="3" x="552.605" y="385.246" transform="matrix(0 1 1 0 0 0)" rx="3" ry="3" opacity=".5" stroke="url(#Q)" stroke-linecap="square" stroke-linejoin="round" fill="none"/><rect width="17" height="17" x="-550.604" y="394.246" transform="rotate(-90)" rx="9" ry="9" opacity=".1" stroke="url(#R)" stroke-linecap="square" stroke-linejoin="round" fill="none"/><path d="M402.746 534.604c-4.138 0-7.5 3.362-7.5 7.5s3.362 7.5 7.5 7.5 7.5-3.362 7.5-7.5-3.362-7.5-7.5-7.5z" color="#000" fill="url(#S)" stroke="url(#T)" stroke-linecap="round" stroke-linejoin="round" overflow="visible" enable-background="accumulate"/><path d="M402.746 534.961c-1.108 0-2.162.254-3.098.705l2.679 5.679-4.679-4.25c-1.267 1.289-2.045 3.061-2.045 5.009 0 .515.057 1.016.161 1.5l7.054-1.821-.116-.098 4.554-5.116c-1.23-1.003-2.8-1.607-4.509-1.607zm6.884 5.232l-7.018 1.679.027.018-6.098 3.75c1.231 2.154 3.55 3.607 5.491 3.607.916 0 1.115-.01 1.313-.027-.257-2.941-.634-7.187-.643-7.286l5.67 4.563c.949-1.213 1.518-2.736 1.518-4.393 0-.661-.09-1.303-.259-1.911z" fill-opacity=".043"/><path d="M402.746 534.961c-.859 0-1.683.159-2.446.438l2.027 5.946-5.205-3.643c-.952 1.213-1.518 2.742-1.518 4.402 0 .342.025.68.071 1.009l7.143-1.33-.116-.098 3.973-5.536c-1.128-.746-2.477-1.188-3.929-1.188zm7.009 5.777l-7.143 1.134.027.018-5.616 4.482c1.303 1.742 3.383 2.875 5.723 2.875h.17c-.085-2.966-.206-7.214-.214-7.313l5.929 4.205c.791-1.149 1.259-2.537 1.259-4.036 0-.468-.048-.923-.134-1.366z" fill-opacity=".048"/><path d="M402.746 534.961c-.648 0-1.278.088-1.875.25l1.804 6.554 3.366-5.991c-.987-.515-2.106-.813-3.295-.813zm-6.08 3.393c-.674 1.09-1.063 2.376-1.063 3.75l.018.491 7.089-.786-6.045-3.455zm13.179 2.938l-7.125.429 6.152 4.063c.646-1.074 1.018-2.335 1.018-3.679 0-.274-.015-.546-.045-.813zm-7.089.482l-5.054 5.393c1.245 1.241 2.95 2.016 4.83 2.071l.223-7.464z" fill-opacity=".059"/><path d="M402.746 534.961c-.391 0-.777.029-1.152.089l1.08 6.714 2.661-6.313c-.803-.313-1.676-.491-2.589-.491zm-6.411 3.991c-.452.918-.715 1.949-.732 3.036l7.107-.179-6.375-2.857zm6.384 2.768l6.393 3.625c.496-.973.777-2.075.777-3.241l-.009-.295-7.161-.089zm.036.053l-4.134 6.152c1.005.714 2.195 1.181 3.491 1.295l.643-7.446z" fill-opacity=".064"/><path d="M402.746 534.961l-.536.018.464 6.786 1.804-6.589c-.555-.138-1.135-.214-1.732-.214zm-6.688 4.643c-.211.563-.357 1.157-.42 1.777l7.071.429-6.652-2.205zm6.661 2.116l6.616 3.143c.316-.753.505-1.571.545-2.429l-7.161-.714zm.036.053l-3.116 6.759c.617.299 1.283.514 1.982.625l1.134-7.384z" fill-opacity=".101"/><path d="M402.791 534.961l-.116 6.804 1.08-6.732c-.315-.044-.638-.069-.964-.071zm-6.902 5.143c-.081.276-.15.559-.196.848l7.018.857zm6.83 1.616l6.804 2.625c.13-.392.234-.796.295-1.214zm.036.053l-2.643 6.964.491.179.446.125.116.027z" fill-opacity=".085"/><path d="M403.246 542.107a.5.5 0 0 1-1 0 .5.5 0 1 1 1 0z" color="#bebebe" fill="#fff" overflow="visible" enable-background="accumulate"/><path d="M409.246 542.104c0 3.59-2.91 6.5-6.5 6.5s-6.5-2.91-6.5-6.5 2.91-6.5 6.5-6.5 6.5 2.91 6.5 6.5z" opacity=".9" color="#000" stroke="url(#U)" stroke-linecap="round" stroke-linejoin="round" overflow="visible" enable-background="accumulate" fill="none"/></g></svg>