<?xml version="1.0" encoding="UTF-8" standalone="no"?>
<svg xmlns:rdf="http://www.w3.org/1999/02/22-rdf-syntax-ns#" xmlns="http://www.w3.org/2000/svg" height="751.43" width="751.43" version="1.1" xmlns:cc="http://creativecommons.org/ns#" xmlns:dc="http://purl.org/dc/elements/1.1/">
 <g transform="translate(-54.286 -32.005)">
  <g>
   <path style="" d="m164.36 142.08c-73.383 73.38-110.07 161.93-110.07 265.64s36.691 192.26 110.07 265.64c73.382 73.382 161.93 110.07 265.64 110.07 103.71-0.00004 192.26-36.691 265.64-110.07 73.381-73.382 110.07-161.93 110.07-265.64s-36.69-192.26-110.07-265.64c-73.38-73.385-161.93-110.08-265.64-110.08-103.71 0.004-192.26 36.695-265.64 110.08zm-60.173 265.64c-0.00005-90.015 31.799-166.82 95.396-230.42 63.597-63.597 140.4-95.396 230.42-95.396 73.381 0.000655 138.69 21.771 195.93 65.31 57.237 43.54 96.13 99.555 116.68 168.04-34.246 69.468-80.231 129.15-137.96 179.05-33.267 28.375-63.598 48.921-90.993 61.641-31.31 13.943-62.62 20.914-93.929 20.914l-11.741-0.36691c-19.569-0.97826-39.626-5.8704-60.173-14.676 60.662-35.223 113.5-79.252 158.5-132.09 39.136-45.986 63.597-90.015 73.382-132.09 2.9347-12.23 4.4024-24.705 4.4029-37.425-0.00053-12.719-1.4682-25.683-4.4029-38.892-5.8711-28.374-17.612-51.856-35.223-70.447-17.612-18.589-39.137-31.309-64.576-38.159-14.188-3.9131-28.742-5.8699-43.662-5.8706-10.763 0.00063-21.648 0.97906-32.655 2.9353-45.008 7.828-87.569 32.289-127.68 73.382-31.31 31.31-55.281 67.512-71.914 108.61-14.187 34.979-21.281 70.569-21.281 106.77-0.00013 6.3601 0.24448 12.842 0.73382 19.446 3.9136 45.008 18.59 86.102 44.029 123.28 2.9351 3.9139 5.8704 7.8276 8.8058 11.741-30.331 9.7844-59.195 16.633-86.591 20.547-30.331-50.878-45.497-106.16-45.497-165.84zm85.123 218.68c32.288-8.8057 62.619-19.079 90.993-30.82 14.676 10.763 31.309 19.569 49.9 26.417 25.683 10.029 52.59 15.043 80.72 15.043 29.352 0.0001 59.683-5.5035 90.993-16.511 50.878-17.612 99.31-47.943 145.3-90.993 42.072-39.137 78.273-84.144 108.61-135.02v6.6044 6.6044c-0.0007 90.015-31.799 166.82-95.396 230.42-63.598 63.598-140.4 95.396-230.42 95.396-94.907 0-175.14-35.712-240.69-107.14zm54.67-225.65c-0.00019-6.8486 0.36672-13.82 1.1007-20.914 3.9135-36.201 15.655-73.871 35.223-113.01 25.439-47.942 55.281-81.698 89.526-101.27 19.568-10.762 40.115-16.143 61.641-16.144 24.46 0.00058 45.007 6.3603 61.641 19.079 14.676 10.763 25.439 26.418 32.288 46.964 5.3809 15.166 8.0715 30.332 8.072 45.497-0.00048 4.4034-0.24508 8.8063-0.73382 13.209-3.9142 35.224-20.547 71.915-49.9 110.07-43.051 56.749-99.8 102.73-170.25 137.96-0.00026 0.00021-1.9571 0.97864-5.8706 2.9353-3.9139 1.9571-6.8492 3.4247-8.8058 4.4029-12.72-12.719-22.993-25.439-30.82-38.159-15.41-27.396-23.115-57.604-23.115-90.627z"/>
  </g>
 </g>
</svg>
